M48
; DRILL file {KiCad 9.0.7-9.0.7~ubuntu24.04.1} date 2026-04-30T23:12:53+0200
; FORMAT={-:-/ absolute / inch / decimal}
; #@! TF.CreationDate,2026-04-30T23:12:53+02:00
; #@! TF.GenerationSoftware,Kicad,Pcbnew,9.0.7-9.0.7~ubuntu24.04.1
; #@! TF.FileFunction,Plated,1,2,PTH
FMAT,2
INCH
; #@! TA.AperFunction,Plated,PTH,ViaDrill
T1C0.0118
; #@! TA.AperFunction,Plated,PTH,ComponentDrill
T2C0.0236
; #@! TA.AperFunction,Plated,PTH,ComponentDrill
T3C0.0315
; #@! TA.AperFunction,Plated,PTH,ComponentDrill
T4C0.0394
%
G90
G05
T1
X3.7677Y-4.4094
X3.7795Y-3.8484
X3.7795Y-5.2992
X3.7795Y-5.3465
X3.7835Y-1.8031
X3.7835Y-1.8465
X3.7835Y-3.0197
X3.7913Y-3.5039
X3.7953Y-2.4921
X3.7992Y-2.7854
X3.8307Y-5.3465
X3.8346Y-1.8031
X3.9256Y-4.6449
X3.9291Y-4.3898
X3.9291Y-4.4882
X3.9665Y-3.2087
X3.9677Y-4.6122
X3.9685Y-4.5756
X4.035Y-3.8268
X4.0453Y-3.1299
X4.063Y-4.0
X4.063Y-4.2756
X4.0646Y-3.8272
X4.0846Y-2.9724
X4.0945Y-2.3031
X4.1181Y-3.6575
X4.1339Y-4.9016
X4.1417Y-3.7087
X4.1421Y-4.711
X4.1496Y-5.1299
X4.1508Y-3.8417
X4.1575Y-3.4303
X4.1634Y-3.0118
X4.1634Y-3.3957
X4.1705Y-4.2102
X4.176Y-2.2709
X4.1831Y-3.0748
X4.1929Y-5.2264
X4.1941Y-4.2472
X4.2209Y-4.4941
X4.2413Y-4.0421
X4.2421Y-4.6358
X4.2441Y-1.8622
X4.2638Y-4.8661
X4.265Y-3.7996
X4.2677Y-2.185
X4.2677Y-5.0039
X4.2744Y-3.9256
X4.2913Y-4.6949
X4.3445Y-4.1839
X4.3701Y-4.4331
X4.376Y-4.2724
X4.3799Y-4.6949
X4.3862Y-1.8047
X4.3898Y-2.2433
X4.3898Y-2.3917
X4.3898Y-2.9528
X4.395Y-3.6091
X4.4051Y-4.1839
X4.4094Y-2.4705
X4.4134Y-4.9409
X4.4185Y-4.5079
X4.4268Y-3.6122
X4.4291Y-1.9562
X4.4291Y-1.9562
X4.4291Y-1.9562
X4.4375Y-3.8507
X4.4488Y-3.7126
X4.4646Y-3.3386
X4.4677Y-4.2102
X4.4685Y-3.0413
X4.4933Y-3.8772
X4.498Y-3.913
X4.5075Y-3.4827
X4.5106Y-4.8638
X4.5106Y-4.8953
X4.5311Y-3.4567
X4.539Y-4.0555
X4.5394Y-2.8189
X4.5504Y-4.0906
X4.5512Y-2.7362
X4.5547Y-3.4307
X4.5709Y-4.2441
X4.5783Y-3.4607
X4.5827Y-3.7283
X4.5827Y-5.0
X4.5866Y-4.8031
X4.61Y-4.5278
X4.6102Y-2.311
X4.6161Y-3.4843
X4.6358Y-2.4311
X4.6378Y-4.5984
X4.6417Y-4.6929
X4.6457Y-2.6492
X4.7047Y-3.5039
X4.7047Y-3.9567
X4.7126Y-5.3543
X4.7244Y-4.872
X4.7343Y-2.5197
X4.7677Y-2.7362
X4.7724Y-3.5488
X4.7835Y-4.1535
X4.8465Y-4.6496
X4.8543Y-2.8622
X4.9055Y-4.3386
X4.9508Y-3.0807
X4.9606Y-4.065
X4.9902Y-3.9862
X4.9902Y-4.2224
X4.9902Y-4.6161
X5.0Y-3.7894
X5.0276Y-5.3622
X5.0394Y-1.8071
X5.0827Y-4.3346
X5.0827Y-4.7205
X5.0827Y-5.0157
X5.0827Y-5.3189
X5.0827Y-5.3622
X5.0866Y-1.811
X5.0886Y-2.2343
X5.0886Y-2.6772
X5.0886Y-3.1693
X5.0886Y-3.6319
X5.0906Y-1.8504
T3
X3.9735Y-2.2933
X3.9735Y-2.372
X3.9735Y-2.4508
X3.9735Y-2.5295
X3.9735Y-2.6083
X3.9735Y-2.687
X3.9735Y-3.3071
X3.9735Y-3.3858
X3.9735Y-3.4646
X3.9735Y-3.5433
X3.9735Y-3.622
X3.9735Y-3.7008
T4
X3.8287Y-3.9862
X3.8287Y-4.7933
X3.9731Y-2.8789
X3.9731Y-2.9577
X3.9731Y-3.0364
X3.9731Y-3.1152
X4.1732Y-5.3051
X4.2815Y-3.1102
X4.2815Y-3.2579
X4.3291Y-4.7638
X4.4291Y-3.1102
X4.4291Y-3.2579
X4.4291Y-4.7638
X4.5291Y-4.7638
X4.6752Y-4.2028
X4.8852Y-3.0681
X4.8852Y-3.1469
X4.8852Y-3.2256
X4.8852Y-3.3043
T2
G00X4.2589Y-5.0709
M15
G01X4.2589Y-5.1063
M16
G05
G00X4.2589Y-5.2421
M15
G01X4.2589Y-5.2658
M16
G05
G00X4.5994Y-5.0709
M15
G01X4.5994Y-5.1063
M16
G05
G00X4.5994Y-5.2421
M15
G01X4.5994Y-5.2658
M16
G05
M30
